<svg xmlns="http://www.w3.org/2000/svg" width="38.5271" height="50" viewBox="0 0 38.5271 50"><defs><style>.a{fill:#bc5b28;}</style></defs><title>icon-golf</title><path class="a" d="M44.2635,19.2638A19.2635,19.2635,0,1,0,17.3044,36.9127c.0249.05.0325.1057.062.1547l.12.2c1.7831,2.9615,2.5211,4.1873,2.5211,7.0308v1.6408a2.0794,2.0794,0,0,0,.8912,1.6846l2.7545,1.9528a2.3531,2.3531,0,0,0,2.6949,0l2.754-1.9528a2.0776,2.0776,0,0,0,.8918-1.6846V44.2978c0-2.8414.7369-4.0667,2.519-7.0276l.1211-.2012c.03-.05.0377-.1056.063-.1569A19.2843,19.2843,0,0,0,44.2635,19.2638Zm-20.9,19.4929a26.7112,26.7112,0,0,0,3.2728.0037,12.5764,12.5764,0,0,0-1.12,5.5374v.5878L25,45.2507l-.5152-.3651v-.5878A12.5821,12.5821,0,0,0,23.3631,38.7567ZM25,34.482A15.2182,15.2182,0,1,1,40.218,19.2638,15.2353,15.2353,0,0,1,25,34.482Z" transform="translate(-5.7365)"/></svg>